<svg
  width="20px"
  height="20px"
  viewBox="-1.36 -1.36 19.72 19.72"
  version="1.1"
  xmlns="http://www.w3.org/2000/svg"
  xmlns:xlink="http://www.w3.org/1999/xlink"
  transform="matrix(1, 0, 0, -1, 0, 0)rotate(270)"
  stroke="#000000"
  stroke-width="0.00017"
><g id="SVGRepo_bgCarrier" stroke-width="0" /><g id="SVGRepo_iconCarrier"> <path
      d="M6.854 4.146l4.353 4.354-4.354 4.354-0.707-0.707 3.647-3.647-3.647-3.646 0.708-0.708zM17 8.5c0 4.687-3.813 8.5-8.5 8.5s-8.5-3.813-8.5-8.5 3.813-8.5 8.5-8.5 8.5 3.813 8.5 8.5zM16 8.5c0-4.136-3.364-7.5-7.5-7.5s-7.5 3.364-7.5 7.5 3.364 7.5 7.5 7.5 7.5-3.364 7.5-7.5z"
      fill="#ffffff"
    /> </g></svg>
